<svg width="24" height="24" viewBox="0 0 24 24" fill="none" xmlns="http://www.w3.org/2000/svg"><path d="M11.680 6.823 C 11.589 6.862,9.948 8.474,6.989 11.432 C 2.258 16.160,2.240 16.179,2.240 16.500 C 2.240 16.684,2.418 17.006,2.581 17.116 C 2.752 17.232,3.051 17.268,3.265 17.200 C 3.391 17.160,4.213 16.359,7.710 12.866 L 12.000 8.581 16.290 12.866 C 20.926 17.496,20.677 17.270,21.083 17.231 C 21.342 17.206,21.538 17.067,21.661 16.822 C 21.786 16.573,21.786 16.427,21.661 16.178 C 21.527 15.910,12.539 6.916,12.311 6.822 C 12.125 6.744,11.862 6.745,11.680 6.823 " stroke="none" fill-rule="evenodd"></path></svg>