<svg width="24" height="24" viewBox="0 0 24 24" fill="none" xmlns="http://www.w3.org/2000/svg"><path d="M2.700 6.816 C 2.514 6.897,2.334 7.108,2.278 7.309 C 2.213 7.539,2.272 7.788,2.439 7.996 C 2.502 8.075,4.585 10.167,7.067 12.645 C 10.748 16.320,11.609 17.160,11.735 17.200 C 11.958 17.271,12.250 17.232,12.429 17.107 C 12.512 17.049,14.625 14.954,17.124 12.451 C 21.444 8.125,21.671 7.890,21.721 7.704 C 21.843 7.251,21.545 6.814,21.083 6.769 C 20.677 6.730,20.926 6.504,16.290 11.134 L 12.000 15.419 7.730 11.151 C 4.718 8.141,3.416 6.865,3.311 6.822 C 3.131 6.747,2.863 6.744,2.700 6.816 " stroke="none" fill-rule="evenodd"></path></svg>