<svg width="24" height="24" viewBox="0 0 24 24" fill="none" xmlns="http://www.w3.org/2000/svg"><path d="M6.499 6.042 C 6.347 6.087,6.125 6.299,6.054 6.469 C 5.983 6.638,5.986 6.848,6.061 7.031 C 6.104 7.135,6.856 7.914,8.531 9.590 L 10.939 12.000 8.514 14.430 C 6.558 16.390,6.079 16.890,6.040 17.015 C 5.899 17.460,6.188 17.921,6.647 17.984 C 7.026 18.036,6.946 18.105,9.570 15.486 L 12.000 13.061 14.430 15.486 C 17.054 18.105,16.974 18.036,17.353 17.984 C 17.687 17.939,17.939 17.687,17.984 17.353 C 18.036 16.974,18.105 17.054,15.486 14.430 L 13.061 12.000 15.486 9.570 C 17.442 7.610,17.921 7.110,17.960 6.985 C 18.101 6.540,17.812 6.079,17.353 6.016 C 16.974 5.964,17.054 5.895,14.430 8.514 L 12.000 10.939 9.590 8.531 C 7.914 6.856,7.135 6.104,7.031 6.061 C 6.869 5.994,6.687 5.988,6.499 6.042 " stroke="none" fill-rule="evenodd"></path></svg>