<svg width="24" height="24" viewBox="0 0 24 24" fill="none" xmlns="http://www.w3.org/2000/svg"><path d="M10.150 0.042 C 9.575 0.182,9.082 0.733,9.013 1.314 L 8.989 1.518 6.165 1.529 L 3.340 1.540 3.102 1.657 C 2.788 1.811,2.543 2.063,2.387 2.392 L 2.260 2.660 2.260 3.740 C 2.260 4.777,2.264 4.829,2.353 5.050 C 2.482 5.371,2.783 5.687,3.112 5.849 C 3.367 5.975,3.401 5.981,3.929 5.994 L 4.480 6.008 4.480 12.734 C 4.480 16.812,4.496 19.593,4.519 19.797 C 4.589 20.401,4.830 20.974,5.197 21.410 C 5.601 21.888,6.061 22.187,6.701 22.388 L 7.060 22.500 12.000 22.500 L 16.940 22.500 17.299 22.388 C 18.365 22.054,19.054 21.365,19.388 20.299 L 19.500 19.940 19.511 12.974 L 19.522 6.008 20.072 5.994 C 20.599 5.981,20.633 5.975,20.888 5.849 C 21.217 5.687,21.518 5.371,21.647 5.050 C 21.736 4.829,21.740 4.777,21.740 3.740 L 21.740 2.660 21.613 2.392 C 21.457 2.063,21.212 1.811,20.898 1.657 L 20.660 1.540 17.835 1.529 L 15.011 1.518 14.987 1.316 C 14.930 0.838,14.562 0.344,14.104 0.133 L 13.860 0.020 12.080 0.013 C 11.101 0.009,10.232 0.022,10.150 0.042 M20.240 3.760 L 20.240 4.520 12.000 4.520 L 3.760 4.520 3.760 3.760 L 3.760 3.000 12.000 3.000 L 20.240 3.000 20.240 3.760 M17.899 6.047 L 18.001 6.093 17.991 12.977 L 17.980 19.860 17.868 20.100 C 17.721 20.415,17.413 20.724,17.104 20.867 L 16.860 20.980 12.000 20.980 L 7.140 20.980 6.880 20.856 C 6.551 20.698,6.304 20.452,6.145 20.120 L 6.020 19.860 6.009 12.976 L 5.999 6.093 6.089 6.049 C 6.223 5.985,17.757 5.982,17.899 6.047 M8.094 8.278 C 7.888 8.327,7.703 8.465,7.598 8.648 L 7.500 8.820 7.500 13.500 L 7.500 18.180 7.608 18.364 C 7.733 18.577,7.845 18.660,8.095 18.727 C 8.420 18.814,8.775 18.632,8.925 18.302 C 8.995 18.148,8.998 17.915,8.999 13.509 C 9.000 8.486,9.010 8.725,8.788 8.487 C 8.619 8.306,8.336 8.221,8.094 8.278 M11.811 8.278 C 11.639 8.320,11.417 8.493,11.330 8.652 C 11.265 8.771,11.259 9.089,11.249 13.413 C 11.242 16.720,11.251 18.094,11.283 18.212 C 11.342 18.431,11.573 18.659,11.798 18.719 C 12.202 18.828,12.613 18.597,12.720 18.201 C 12.748 18.097,12.758 16.536,12.751 13.413 C 12.740 8.826,12.739 8.779,12.658 8.641 C 12.494 8.361,12.122 8.202,11.811 8.278 M15.660 8.260 C 15.638 8.267,15.572 8.284,15.513 8.296 C 15.358 8.331,15.160 8.512,15.075 8.698 C 15.005 8.852,15.002 9.084,15.002 13.500 C 15.002 17.916,15.005 18.148,15.075 18.302 C 15.225 18.632,15.580 18.814,15.905 18.727 C 16.155 18.660,16.267 18.577,16.392 18.364 L 16.500 18.180 16.500 13.500 L 16.500 8.820 16.394 8.640 C 16.332 8.533,16.224 8.424,16.134 8.374 C 15.984 8.292,15.741 8.233,15.660 8.260 " stroke="none" fill-rule="evenodd"></path></svg>